# xmcd
#
# Track frame offsets:
#	150
#	14157
#	29963
#	44593
#	60351
#	76173
#	88883
#	102449
#	117375
#	135213
#
# Disc length: 1942 seconds
#
# Revision: 0
# Processed by: cddbd v1.5.2PL0 Copyright (c) Steve Scherf et al.
# Submitted via: EasyCDDAExtractor 16.0.1.1
#
DISCID=8707940a
DTITLE=Joe Bonson - Country Roots
DYEAR=2006
DGENRE=Country
TTITLE0=Country Roots
TTITLE1=Man From Another Time
TTITLE2=Let It On
TTITLE3=Time Machine
TTITLE4=Leavin' Home
TTITLE5=Leave My Mama Out Of This
TTITLE6=Sundays In The Country
TTITLE7=If Love Was
TTITLE8=Has It Been That Bad For You
TTITLE9=Blue Monday
EXTD=
EXTT0=
EXTT1=
EXTT2=
EXTT3=
EXTT4=
EXTT5=
EXTT6=
EXTT7=
EXTT8=
EXTT9=
PLAYORDER=
